<?xml version="1.0" encoding="UTF-8" standalone="no"?>
<svg
   xmlns:dc="http://purl.org/dc/elements/1.1/"
   xmlns:cc="http://creativecommons.org/ns#"
   xmlns:rdf="http://www.w3.org/1999/02/22-rdf-syntax-ns#"
   xmlns:svg="http://www.w3.org/2000/svg"
   xmlns="http://www.w3.org/2000/svg"
   xmlns:sodipodi="http://sodipodi.sourceforge.net/DTD/sodipodi-0.dtd"
   xmlns:inkscape="http://www.inkscape.org/namespaces/inkscape"
   width="80"
   height="120"
   version="1.1"
   id="svg3086"
   inkscape:version="0.48.4 r9939"
   sodipodi:docname="partyhat.svg">
  <metadata
     id="metadata3147">
    <rdf:RDF>
      <cc:Work
         rdf:about="">
        <dc:format>image/svg+xml</dc:format>
        <dc:type
           rdf:resource="http://purl.org/dc/dcmitype/StillImage" />
        <dc:title></dc:title>
      </cc:Work>
    </rdf:RDF>
  </metadata>
  <defs
     id="defs3145" />
  <sodipodi:namedview
     pagecolor="#ffffff"
     bordercolor="#666666"
     borderopacity="1"
     objecttolerance="10"
     gridtolerance="10"
     guidetolerance="10"
     inkscape:pageopacity="0"
     inkscape:pageshadow="2"
     inkscape:window-width="1336"
     inkscape:window-height="818"
     id="namedview3143"
     showgrid="false"
     inkscape:snap-global="true"
     inkscape:object-paths="false"
     inkscape:object-nodes="true"
     inkscape:zoom="3.357702"
     inkscape:cx="77.528788"
     inkscape:cy="73.649858"
     inkscape:window-x="280"
     inkscape:window-y="183"
     inkscape:window-maximized="0"
     inkscape:current-layer="svg3086" />
  <path
     inkscape:connector-curvature="0"
     id="path3089"
     d="m 33.35,115.30305 q 10.4,-5.25 15.75,-14.75 l 2.75,11.05 q -9.35,3.3 -18.5,3.7 z"
     style="fill:#fb2421;stroke:#000000;stroke-width:0.5;stroke-linejoin:bevel;stroke-miterlimit:5.53846169;stroke-opacity:1;stroke-dasharray:none" />
  <path
     inkscape:connector-curvature="0"
     id="path3093"
     d="m 49.1,100.55305 q -5.35,9.5 -15.75,14.75 -7.6,0.3 -15.05,-1.45 19.9,-7.85 26.15,-31.85 l 4.65,18.55 z"
     style="fill:#ffffff;stroke:#000000;stroke-width:0.5;stroke-linejoin:bevel;stroke-miterlimit:5.53846169;stroke-opacity:1;stroke-dasharray:none" />
  <path
     inkscape:connector-curvature="0"
     id="path3097"
     d="m 11,100.10305 -2.7,10.5 2.55,1 7.45,2.25 q 19.9,-7.85 26.15,-31.85 l -2.25,-9.05 q -11.45,25.15 -31.2,27.15 z"
     style="fill:#fb2421;stroke:#000000;stroke-width:0.5;stroke-linejoin:bevel;stroke-miterlimit:5.53846169;stroke-opacity:1;stroke-dasharray:none" />
  <path
     inkscape:connector-curvature="0"
     id="path3101"
     d="m 42.2,72.95305 q -11.45,25.15 -31.2,27.15 l 4.45,-17.35 q 16,-3.4 24.2,-20.05 l 2.55,10.25 z"
     style="fill:#ffffff;stroke:#000000;stroke-width:0.5;stroke-linejoin:bevel;stroke-miterlimit:5.53846169;stroke-opacity:1;stroke-dasharray:none" />
  <path
     inkscape:connector-curvature="0"
     id="path3105"
     d="m 39.65,62.70305 q -8.2,16.65 -24.2,20.05 l 3.35,-13.1 q 11.8,-1.1 18.95,-14.6 l 1.9,7.65 z"
     style="fill:#fb2421;stroke:#000000;stroke-width:0.5;stroke-linejoin:bevel;stroke-miterlimit:5.53846169;stroke-opacity:1;stroke-dasharray:none" />
  <path
     inkscape:connector-curvature="0"
     id="path3109"
     d="m 22.9,53.80305 q 6.65,-1.7 12.5,-8.15 l 2.35,9.4 q -7.15,13.5 -18.95,14.6 l 4.1,-15.85 z"
     style="fill:#ffffff;stroke:#000000;stroke-width:0.5;stroke-linejoin:bevel;stroke-miterlimit:5.53846169;stroke-opacity:1;stroke-dasharray:none" />
  <path
     inkscape:connector-curvature="0"
     id="path3113"
     d="m 33.5,38.00305 1.9,7.65 q -5.85,6.45 -12.5,8.15 l 3.3,-12.95 q 3.8,-0.25 7.3,-2.85 z"
     style="fill:#fb2421;stroke:#000000;stroke-width:0.5;stroke-linejoin:bevel;stroke-miterlimit:5.53846169;stroke-opacity:1;stroke-dasharray:none" />
  <path
     inkscape:connector-curvature="0"
     id="path3141"
     d="m 10.85,111.60305 7.449999,2.25 q 7.45,1.75 15.05,1.45 9.15,-0.4 18.5,-3.7 l -21.6,-86.49999 L 8.3,110.60305 l 2.55,1 z"
     style="fill:none;stroke:#000000;stroke-width:1;stroke-linejoin:miter;stroke-miterlimit:16;stroke-opacity:1;stroke-dasharray:none" />
</svg>
