<?xml version="1.0" encoding="UTF-8" standalone="no"?>
<svg
   xmlns:dc="http://purl.org/dc/elements/1.1/"
   xmlns:cc="http://creativecommons.org/ns#"
   xmlns:rdf="http://www.w3.org/1999/02/22-rdf-syntax-ns#"
   xmlns:svg="http://www.w3.org/2000/svg"
   xmlns="http://www.w3.org/2000/svg"
   xmlns:sodipodi="http://sodipodi.sourceforge.net/DTD/sodipodi-0.dtd"
   xmlns:inkscape="http://www.inkscape.org/namespaces/inkscape"
   width="80"
   height="120"
   version="1.1"
   id="svg3086"
   inkscape:version="0.48.3.1 r9886"
   sodipodi:docname="partyhat.svg">
  <metadata
     id="metadata3147">
    <rdf:RDF>
      <cc:Work
         rdf:about="">
        <dc:format>image/svg+xml</dc:format>
        <dc:type
           rdf:resource="http://purl.org/dc/dcmitype/StillImage" />
      </cc:Work>
    </rdf:RDF>
  </metadata>
  <defs
     id="defs3145" />
  <sodipodi:namedview
     pagecolor="#ffffff"
     bordercolor="#666666"
     borderopacity="1"
     objecttolerance="10"
     gridtolerance="10"
     guidetolerance="10"
     inkscape:pageopacity="0"
     inkscape:pageshadow="2"
     inkscape:window-width="1336"
     inkscape:window-height="818"
     id="namedview3143"
     showgrid="false"
     inkscape:snap-global="true"
     inkscape:object-paths="false"
     inkscape:object-nodes="true"
     inkscape:zoom="3.357702"
     inkscape:cx="18.245567"
     inkscape:cy="20.188827"
     inkscape:window-x="65"
     inkscape:window-y="24"
     inkscape:window-maximized="0"
     inkscape:current-layer="svg3086" />
  <path
     inkscape:connector-curvature="0"
     id="path3089"
     d="m 33.35,115.30305 q 10.4,-5.25 15.75,-14.75 l 2.75,11.05 q -9.35,3.3 -18.5,3.7 z"
     style="fill:#fb2421;stroke:#000000;stroke-width:0.5;stroke-linejoin:bevel;stroke-miterlimit:5.53846169;stroke-opacity:1;stroke-dasharray:none" />
  <path
     inkscape:connector-curvature="0"
     id="path3091"
     d="M 4.0402023,-1.2077593 z"
     style="stroke-width:0.5;stroke-linejoin:bevel;stroke-miterlimit:5.53846169;stroke-dasharray:none" />
  <path
     inkscape:connector-curvature="0"
     id="path3093"
     d="m 49.1,100.55305 q -5.35,9.5 -15.75,14.75 -7.6,0.3 -15.05,-1.45 19.9,-7.85 26.15,-31.85 l 4.65,18.55 z"
     style="fill:#ffffff;stroke:#000000;stroke-width:0.5;stroke-linejoin:bevel;stroke-miterlimit:5.53846169;stroke-opacity:1;stroke-dasharray:none" />
  <path
     inkscape:connector-curvature="0"
     id="path3095"
     d="M 4.0402023,-1.2077593 z"
     style="fill:#fb2421;stroke-width:0.5;stroke-linejoin:bevel;stroke-miterlimit:5.53846169;stroke-dasharray:none" />
  <path
     inkscape:connector-curvature="0"
     id="path3097"
     d="m 11,100.10305 -2.7,10.5 2.55,1 7.45,2.25 q 19.9,-7.85 26.15,-31.85 l -2.25,-9.05 q -11.45,25.15 -31.2,27.15 z"
     style="fill:#fb2421;stroke:#000000;stroke-width:0.5;stroke-linejoin:bevel;stroke-miterlimit:5.53846169;stroke-opacity:1;stroke-dasharray:none" />
  <path
     inkscape:connector-curvature="0"
     id="path3099"
     d="M 4.0402023,-1.2077593 z"
     style="fill:#ffffff;stroke-width:0.5;stroke-linejoin:bevel;stroke-miterlimit:5.53846169;stroke-dasharray:none" />
  <path
     inkscape:connector-curvature="0"
     id="path3101"
     d="m 42.2,72.95305 q -11.45,25.15 -31.2,27.15 l 4.45,-17.35 q 16,-3.4 24.2,-20.05 l 2.55,10.25 z"
     style="fill:#ffffff;stroke:#000000;stroke-width:0.5;stroke-linejoin:bevel;stroke-miterlimit:5.53846169;stroke-opacity:1;stroke-dasharray:none" />
  <path
     inkscape:connector-curvature="0"
     id="path3103"
     d="M 4.0402023,-1.2077593 z"
     style="fill:#fb2421;stroke-width:0.5;stroke-linejoin:bevel;stroke-miterlimit:5.53846169;stroke-dasharray:none" />
  <path
     inkscape:connector-curvature="0"
     id="path3105"
     d="m 39.65,62.70305 q -8.2,16.65 -24.2,20.05 l 3.35,-13.1 q 11.8,-1.1 18.95,-14.6 l 1.9,7.65 z"
     style="fill:#fb2421;stroke:#000000;stroke-width:0.5;stroke-linejoin:bevel;stroke-miterlimit:5.53846169;stroke-opacity:1;stroke-dasharray:none" />
  <path
     inkscape:connector-curvature="0"
     id="path3107"
     d="M 4.0402023,-1.2077593 z"
     style="fill:#ffffff;stroke-width:0.5;stroke-linejoin:bevel;stroke-miterlimit:5.53846169;stroke-dasharray:none" />
  <path
     inkscape:connector-curvature="0"
     id="path3109"
     d="m 22.9,53.80305 q 6.65,-1.7 12.5,-8.15 l 2.35,9.4 q -7.15,13.5 -18.95,14.6 l 4.1,-15.85 z"
     style="fill:#ffffff;stroke:#000000;stroke-width:0.5;stroke-linejoin:bevel;stroke-miterlimit:5.53846169;stroke-opacity:1;stroke-dasharray:none" />
  <path
     inkscape:connector-curvature="0"
     id="path3111"
     d="M 4.0402023,-1.2077593 z"
     style="fill:#fb2421;stroke-width:0.5;stroke-linejoin:bevel;stroke-miterlimit:5.53846169;stroke-dasharray:none" />
  <path
     inkscape:connector-curvature="0"
     id="path3113"
     d="m 33.5,38.00305 1.9,7.65 q -5.85,6.45 -12.5,8.15 l 3.3,-12.95 q 3.8,-0.25 7.3,-2.85 z"
     style="fill:#fb2421;stroke:#000000;stroke-width:0.5;stroke-linejoin:bevel;stroke-miterlimit:5.53846169;stroke-opacity:1;stroke-dasharray:none" />
  <path
     inkscape:connector-curvature="0"
     id="path3117"
     d="m 33.5,38.00305 -3.25,-12.9 -4.05,15.75 q 3.8,-0.25 7.3,-2.85 z"
     style="fill:#ffffff;stroke:#000000;stroke-width:0.5;stroke-linejoin:bevel;stroke-miterlimit:5.53846169;stroke-opacity:1;stroke-dasharray:none" />
  <path
     inkscape:connector-curvature="0"
     id="path3115"
     d="M 4.0402023,-1.2077593 z"
     style="fill:#ffffff;stroke-width:0.5;stroke-linejoin:bevel;stroke-miterlimit:5.53846169;stroke-dasharray:none" />
  <path
     inkscape:connector-curvature="0"
     id="path3119"
     d="M 4.0402023,-1.2077593 z"
     style="fill:#fb2421;stroke-width:0.5;stroke-linejoin:bevel;stroke-miterlimit:5.53846169;stroke-dasharray:none" />
  <path
     inkscape:connector-curvature="0"
     id="path3123"
     d="M 4.0402023,-1.2077593 z"
     style="fill:#ffffff;stroke-width:0.5;stroke-linejoin:bevel;stroke-miterlimit:5.53846169;stroke-dasharray:none" />
  <path
     inkscape:connector-curvature="0"
     id="path3127"
     d="M 4.0402023,-1.2077593 z"
     style="fill:#fef27c;stroke-width:0.5;stroke-linejoin:bevel;stroke-miterlimit:5.53846169;stroke-dasharray:none" />
  <path
     inkscape:connector-curvature="0"
     id="path3131"
     d="M 4.0402023,-1.2077593 z"
     style="fill:#fef27c;stroke-width:0.5;stroke-linejoin:bevel;stroke-miterlimit:5.53846169;stroke-dasharray:none" />
  <path
     inkscape:connector-curvature="0"
     id="path3135"
     d="M 4.0402023,-1.2077593 z"
     style="fill:#fef27c;stroke-width:0.5;stroke-linejoin:bevel;stroke-miterlimit:5.53846169;stroke-dasharray:none" />
  <path
     inkscape:connector-curvature="0"
     id="path3139"
     d="M 4.0402023,-1.2077593 z"
     style="fill:#fef27c;stroke-width:0.5;stroke-linejoin:bevel;stroke-miterlimit:5.53846169;stroke-dasharray:none" />
  <path
     inkscape:connector-curvature="0"
     id="path3141"
     d="m 10.85,111.60305 7.449999,2.25 q 7.45,1.75 15.05,1.45 9.15,-0.4 18.5,-3.7 l -21.6,-86.49999 L 8.3,110.60305 l 2.55,1 z"
     style="fill:none;stroke:#000000;stroke-width:1;stroke-linejoin:miter;stroke-miterlimit:16;stroke-opacity:1;stroke-dasharray:none" />
  <path
     inkscape:connector-curvature="0"
     id="path3121"
     d="m 78.241291,18.840064 c -3.366667,3.333333 -8.416667,3.666667 -15.15,1 -14.9,-4.866667 -27.685848,-4.750169 -32.55,3.7 -2.433333,-1.333333 1.45,-6.35 1.45,-6.35 6,-4.933333 12.584422,-5.437688 20.2,-3.3 11.533333,2.4 20.183333,1.9 25.95,-1.5 z"
     style="fill:#fef27c;stroke:#000000;stroke-width:0.5;stroke-linejoin:miter;stroke-miterlimit:5.53846169;stroke-opacity:1;stroke-dasharray:none"
     sodipodi:nodetypes="ccccccc" />
  <path
     inkscape:connector-curvature="0"
     id="path3125"
     d="m 28.891291,12.240064 c -3.266667,0.3 -6.1,1.516667 -8.5,3.65 -3.233333,2.866667 -3.863401,6.411224 -0.55,8.4 4.133333,2.4 7.7,2.15 10.7,-0.75 -1.866667,2.866667 -5.033333,4.383333 -9.5,4.55 l -2.4,-0.05 c -5.966667,-0.3 -8.05,-3.383333 -6.25,-9.25 1.133333,-3.866667 4.016667,-6.75 8.65,-8.650001 2.266667,-0.9999996 4.966667,-1.7166666 8.1,-2.1499996 z"
     style="fill:#fef27c;stroke:#000000;stroke-width:0.5;stroke-linejoin:miter;stroke-miterlimit:5.53846169;stroke-opacity:1;stroke-dasharray:none"
     sodipodi:nodetypes="cccccccccc" />
  <path
     inkscape:connector-curvature="0"
     id="path3129"
     d="m 47.541291,28.190064 c -2.546734,-0.343299 -3.903266,-0.936599 -7.047823,-1.779899 -3.333333,-1.2 -6.452177,-2.603434 -9.952177,-2.870101 0.533333,2.066667 1.5,3.333333 2.9,3.8 3.251089,2.34238 6.285511,3.296734 9.55,4.65 l 0.05,0 c 2.733333,0.966667 5.316667,1.683333 7.75,2.15 9.4,1.8 16.116667,-0.283333 20.15,-6.25 -0.966667,-1.933333 -2.283333,-3.2 -3.95,-3.8 -4.933333,3.2 -9.083333,4.833333 -12.45,4.9 l -1.3,0 c -1.766667,-0.03333 -3.666667,-0.3 -5.7,-0.8 z"
     style="fill:#fef27c;stroke:#000000;stroke-width:0.5;stroke-linejoin:miter;stroke-miterlimit:5.53846169;stroke-opacity:1;stroke-dasharray:none"
     sodipodi:nodetypes="cccccccccccc" />
  <path
     inkscape:connector-curvature="0"
     id="path3133"
     d="m 47.541291,28.190064 q 2.15,-2.85 2.55,-6.35 3.45,0.1 5.25,2.65 -1.25,3.15 -2.1,4.5 -2.65,-0.05 -5.7,-0.8 z"
     style="fill:#fef27c;stroke:#000000;stroke-width:0.5;stroke-linejoin:miter;stroke-miterlimit:5.53846169;stroke-opacity:1;stroke-dasharray:none" />
  <path
     inkscape:connector-curvature="0"
     id="path3137"
     d="m 49.891291,35.190064 q -3.1,2.8 -7.5,2.8 -4.4,0 -7.2,-2.8 -2.85,-2.8 -3.4,-5.25 l -1.25,-6.4 q 0.8,3.1 2.9,3.8 0.5,1.7 1.65,3 2.4,2.65 6,2.15 l 1.9,-0.5 0.05,0 q 4.1,1.45 7.75,2.15 l -0.9,1.05 z"
     style="fill:#fef27c;stroke:#000000;stroke-width:0.5;stroke-linejoin:miter;stroke-miterlimit:5.53846169;stroke-opacity:1;stroke-dasharray:none" />
</svg>
